<svg width="14" height="14" viewBox="0 0 14 14" fill="none" xmlns="http://www.w3.org/2000/svg">
<path fill-rule="evenodd" clip-rule="evenodd" d="M7.53038 1.09942C7.23751 0.800227 6.76264 0.80019 6.46972 1.09933L4.97047 2.63046L4.90807 2.70263C4.67926 3.00317 4.70006 3.43775 4.97047 3.71392L6.46972 5.24504L6.54038 5.30876C6.83462 5.54241 7.26004 5.52113 7.53038 5.24496L7.59277 5.17278C7.82151 4.87225 7.80068 4.43771 7.5303 4.16158L7.32564 3.95251C9.24389 4.12104 10.75 5.76443 10.75 7.76559C10.75 9.8787 9.07065 11.5929 7 11.5929C4.92935 11.5929 3.25 9.8787 3.25 7.76559C3.25 6.75165 3.46849 6.18376 4.01654 5.52819C4.28551 5.20645 4.2482 4.7229 3.9332 4.44817C3.6182 4.17343 3.14479 4.21154 2.87582 4.53329C2.10273 5.45806 1.75 6.37483 1.75 7.76559C1.75 10.7251 4.10115 13.125 7 13.125C9.89885 13.125 12.25 10.7251 12.25 7.76559C12.25 4.90985 10.0608 2.57513 7.30282 2.41492L7.5303 2.18279L7.5927 2.11063C7.82149 1.81013 7.80072 1.37559 7.53038 1.09942ZM5.5 6.84688C5.5 6.5086 5.77422 6.23438 6.1125 6.23438H7.8875C8.22577 6.23438 8.5 6.5086 8.5 6.84688C8.5 7.18515 8.22577 7.45937 7.8875 7.45937H6.1125C5.77422 7.45937 5.5 7.18515 5.5 6.84688ZM6.1125 8.14844C5.77422 8.14844 5.5 8.42266 5.5 8.76094C5.5 9.09921 5.77422 9.37344 6.1125 9.37344H7.8875C8.22577 9.37344 8.5 9.09921 8.5 8.76094C8.5 8.42266 8.22577 8.14844 7.8875 8.14844H6.1125Z" fill="#11A6DA"/>
</svg>
