<svg width="16" height="16" viewBox="0 0 16 16" fill="none" xmlns="http://www.w3.org/2000/svg">
<path d="M11.5199 4.61917L10.8154 3.84275L11.0668 4.83537C11.0695 4.84275 11.2266 5.48157 11.0668 6.05651C10.7709 5.08107 9.95385 3.28747 7.79593 2.23588L7.30883 2L7.4162 2.50122C7.42144 2.5258 7.8902 4.87715 5.65896 7.05405C5.61706 6.60688 5.44423 6.02949 4.86022 5.67814L4.48048 5.44962L4.45692 5.87224C4.45692 5.88452 4.38098 7.14496 3.76555 8.04914C3.32034 8.70025 3.06894 9.35134 3.01394 9.98525C2.9118 11.1572 3.32296 12.8034 5.85799 13.9754L5.91299 14H6.99195L6.93695 13.973C5.34994 13.2138 5.3316 11.8894 5.36565 11.5012C5.39447 11.1351 5.53326 10.7617 5.77943 10.3882C6.08845 9.91891 6.12774 9.24815 6.13036 9.24323L6.15392 8.81081L6.53627 9.0516C6.81911 9.22849 6.98408 9.50368 7.081 9.73955C8.084 8.6339 7.7226 7.49385 7.70426 7.44226L7.51571 6.86486L8.07877 7.14988C9.09488 7.66584 9.56888 8.48895 9.78361 9.06388C9.84909 8.87714 9.88575 8.70271 9.89884 8.61424L9.9748 8.04914L10.3598 8.48895C11.4256 9.70761 11.8315 10.8403 11.5618 11.8599C11.1795 13.3096 9.58198 13.9558 9.51388 13.9828L9.46675 14H10.475L10.5221 13.9853C10.6321 13.9435 13.2352 12.9754 13.8664 10.6388C14.3404 8.87714 13.5521 6.85258 11.5199 4.61917Z" fill="#A4AEC1"/>
</svg>
