<svg width="14" height="14" viewBox="0 0 14 14" fill="none" xmlns="http://www.w3.org/2000/svg">
<path fill-rule="evenodd" clip-rule="evenodd" d="M7.47883 11.9007C7.52685 12.1 7.563 12.25 7.99033 12.25L9.73523 12.2465C10.1608 12.2465 10.1812 11.9509 10.2077 11.5675C10.2097 11.5374 10.2119 11.5069 10.2142 11.4759L10.4951 8.00661L12.247 4.26008C12.0715 4.10401 11.8391 4.02833 11.6056 4.05124C11.3722 4.07415 11.1588 4.19358 11.0168 4.3808L10.1444 5.9912L10.0851 5.96146L10.4175 2.35051C10.4175 2.35051 9.36007 1.70495 9.18558 3.24188L9.0172 4.86628L9.00807 4.8318L9.00807 4.83179C8.37762 2.45079 8.36852 2.41642 7.91094 1.75131C7.91094 1.75131 7.03501 1.67171 7.19205 2.75202L7.71551 4.92839L7.80712 4.99049L7.69632 4.94326L5.53091 5.10421L4.48397 6.65251C4.48397 6.65251 5.58064 7.18523 5.9968 6.15565C6.33355 6.39417 6.76663 6.44894 7.15191 6.30174L7.5419 7.2692L6.87535 8.09059L5.96015 7.82817C5.96015 7.82817 5.74902 6.68837 4.46565 7.14499L5.06415 8.64955L6.0474 9.53304C6.28202 10.2671 6.73956 10.9094 7.35607 11.37C7.35607 11.37 7.41016 11.6289 7.46687 11.852C7.47107 11.8685 7.47499 11.8848 7.47883 11.9007ZM2.33645 8.49621C2.32791 8.54102 2.33918 8.58733 2.36732 8.62317V8.62229C2.4053 8.67067 2.46384 8.69824 2.52523 8.69664C2.56283 8.6957 2.59941 8.68418 2.6308 8.6634L3.92551 7.81665C3.9648 7.79364 3.99213 7.75459 4.00034 7.70971C4.00856 7.66483 3.99684 7.6186 3.96826 7.58309C3.90453 7.50382 3.79102 7.48637 3.70652 7.54286L2.41181 8.38961C2.37248 8.41252 2.34498 8.45141 2.33645 8.49621ZM1.96691 6.91843C1.89642 6.93614 1.82237 6.9082 1.78102 6.8483C1.73966 6.78839 1.73966 6.70906 1.78102 6.64916C1.82237 6.58925 1.89642 6.56132 1.96691 6.57903H3.35061C3.42109 6.56132 3.49514 6.58925 3.5365 6.64916C3.57785 6.70906 3.57785 6.78839 3.5365 6.8483C3.49514 6.9082 3.42109 6.93614 3.35061 6.91843H1.96691ZM2.41185 5.19608L3.70656 6.04371V6.03933C3.73949 6.05872 3.77661 6.06983 3.81475 6.0717C3.87307 6.07242 3.9287 6.0471 3.96655 6.00259C3.99496 5.9664 4.00654 5.91974 3.99836 5.87442C3.99019 5.82911 3.96305 5.78947 3.9238 5.76554L2.62909 4.91879C2.54441 4.86315 2.43152 4.88051 2.36736 4.95902C2.33911 4.99544 2.3278 5.04227 2.33631 5.08761C2.34482 5.13295 2.37233 5.17245 2.41185 5.19608Z" fill="#1BBA6B"/>
</svg>
